# xmcd
#
# Track frame offsets: 
#        150
#        31340
#        60583
#        87409
#        115622
#        142385
#        177550
#        206434
#        234137
#        264024
#
# Disc length: 3940 seconds
#
# Revision: 3
# Processed by: cddbd v1.5.2PL0 Copyright (c) Steve Scherf et al.
# Submitted via: ExactAudioCopy v1.1
#
DISCID=820f620a
DTITLE=Various Artist - Venti Compilation 3 [CD 1)
DYEAR=2015
DGENRE=Disco
TTITLE0=Tom Hooker - Nobody loves me (I Venti remix)
TTITLE1=Ken Laszlo - Ken Laszlo - S.O.S. (Vocal version)
TTITLE2=Miko Mission - Universal feeling (Vocal mix)
TTITLE3=Victor Ark - Victor Ark - Coming back (80s remix)
TTITLE4=Albert One - Stay (I Venti d'Azzurro remix)
TTITLE5=Ryan Paris - Parisienne girl (80s remix)
TTITLE6=Gazebo - Ladies (80s remix)
TTITLE7=Lui$ - D.J. control (Vocal version)
TTITLE8=Tom Hooker - Illusions (I Venti remix)
TTITLE9=Victor Ark - Let me go (80s remix)
EXTD=
EXTT0=
EXTT1=
EXTT2=
EXTT3=
EXTT4=
EXTT5=
EXTT6=
EXTT7=
EXTT8=
EXTT9=
PLAYORDER=
